<svg width="253" height="253" viewBox="0 0 253 253" fill="none" xmlns="http://www.w3.org/2000/svg">
<rect width="253" height="253" rx="13" fill="#0F172A"/>
<path d="M62.9738 70.704C57.9818 70.704 53.6938 69.744 50.1098 67.824C46.5258 65.904 43.7738 63.1947 41.8538 59.696C39.9764 56.1973 39.0378 52.1013 39.0378 47.408C39.0378 43.9093 39.5711 40.7307 40.6378 37.872C41.7471 35.0133 43.3258 32.56 45.3738 30.512C47.4644 28.464 49.9818 26.9067 52.9258 25.84C55.9124 24.7307 59.2618 24.176 62.9738 24.176C64.9364 24.176 66.9631 24.4107 69.0538 24.88C71.1871 25.3067 73.0644 25.968 74.6858 26.864C75.8804 27.504 76.7124 28.3147 77.1818 29.296C77.6511 30.2773 77.8004 31.28 77.6298 32.304C77.5018 33.328 77.1391 34.2453 76.5418 35.056C75.9444 35.8667 75.1764 36.4213 74.2378 36.72C73.2991 36.976 72.2751 36.8267 71.1658 36.272C69.8858 35.6747 68.6058 35.2267 67.3258 34.928C66.0884 34.5867 64.7871 34.416 63.4218 34.416C60.7764 34.416 58.5578 34.928 56.7658 35.952C55.0164 36.9333 53.6938 38.384 52.7978 40.304C51.9018 42.224 51.4538 44.592 51.4538 47.408C51.4538 50.224 51.9018 52.6133 52.7978 54.576C53.6938 56.496 55.0164 57.968 56.7658 58.992C58.5578 59.9733 60.7764 60.464 63.4218 60.464C64.5311 60.464 65.7258 60.336 67.0058 60.08C68.2858 59.7813 69.5444 59.3333 70.7818 58.736C72.0618 58.1813 73.1924 58.032 74.1738 58.288C75.1978 58.544 76.0084 59.056 76.6058 59.824C77.2458 60.592 77.6511 61.488 77.8218 62.512C77.9924 63.4933 77.8431 64.4747 77.3738 65.456C76.9471 66.4373 76.1791 67.2267 75.0698 67.824C73.5764 68.72 71.7204 69.424 69.5018 69.936C67.3258 70.448 65.1498 70.704 62.9738 70.704ZM104.512 70.704C99.9469 70.704 95.9363 69.744 92.4803 67.824C89.0243 65.8613 86.3363 63.1307 84.4163 59.632C82.5389 56.1333 81.6003 52.0587 81.6003 47.408C81.6003 43.9093 82.1336 40.7307 83.2003 37.872C84.3096 35.0133 85.8669 32.56 87.8723 30.512C89.9203 28.464 92.3523 26.9067 95.1683 25.84C97.9843 24.7307 101.099 24.176 104.512 24.176C109.078 24.176 113.067 25.136 116.48 27.056C119.936 28.976 122.624 31.6853 124.544 35.184C126.464 38.64 127.424 42.7147 127.424 47.408C127.424 50.9067 126.87 54.0853 125.76 56.944C124.694 59.8027 123.136 62.2773 121.088 64.368C119.083 66.416 116.672 67.9947 113.856 69.104C111.04 70.1707 107.926 70.704 104.512 70.704ZM104.512 60.848C106.774 60.848 108.694 60.3147 110.272 59.248C111.851 58.1813 113.067 56.6453 113.92 54.64C114.774 52.6347 115.2 50.224 115.2 47.408C115.2 43.184 114.262 39.8987 112.384 37.552C110.507 35.2053 107.883 34.032 104.512 34.032C102.294 34.032 100.374 34.5653 98.7523 35.632C97.1736 36.656 95.9576 38.1707 95.1042 40.176C94.2509 42.1387 93.8243 44.5493 93.8243 47.408C93.8243 51.632 94.7629 54.9387 96.6403 57.328C98.5176 59.6747 101.142 60.848 104.512 60.848ZM140.521 70C138.516 70 136.98 69.488 135.913 68.464C134.889 67.3973 134.377 65.8827 134.377 63.92V30.96C134.377 28.9973 134.889 27.504 135.913 26.48C136.98 25.4133 138.516 24.88 140.521 24.88H153.065C160.916 24.88 166.975 26.8427 171.241 30.768C175.551 34.6933 177.705 40.24 177.705 47.408C177.705 50.992 177.151 54.192 176.041 57.008C174.932 59.7813 173.332 62.1493 171.241 64.112C169.151 66.032 166.569 67.504 163.497 68.528C160.468 69.5093 156.991 70 153.065 70H140.521ZM146.153 60.464H152.297C154.559 60.464 156.5 60.1867 158.121 59.632C159.785 59.0773 161.151 58.2667 162.217 57.2C163.327 56.1333 164.137 54.7893 164.649 53.168C165.204 51.5467 165.481 49.6267 165.481 47.408C165.481 42.9707 164.393 39.7067 162.217 37.616C160.041 35.4827 156.735 34.416 152.297 34.416H146.153V60.464ZM190.834 70C188.828 70 187.292 69.488 186.226 68.464C185.202 67.3973 184.69 65.8827 184.69 63.92V30.96C184.69 28.9973 185.202 27.504 186.226 26.48C187.292 25.4133 188.828 24.88 190.834 24.88H212.53C214.066 24.88 215.218 25.264 215.986 26.032C216.754 26.8 217.138 27.9093 217.138 29.36C217.138 30.8533 216.754 32.0053 215.986 32.816C215.218 33.584 214.066 33.968 212.53 33.968H195.954V42.544H211.122C212.615 42.544 213.746 42.928 214.514 43.696C215.324 44.464 215.73 45.5947 215.73 47.088C215.73 48.5813 215.324 49.712 214.514 50.48C213.746 51.248 212.615 51.632 211.122 51.632H195.954V60.912H212.53C214.066 60.912 215.218 61.3173 215.986 62.128C216.754 62.896 217.138 64.0053 217.138 65.456C217.138 66.9493 216.754 68.08 215.986 68.848C215.218 69.616 214.066 70 212.53 70H190.834Z" fill="white"/>
<path d="M39.7355 226.576C37.8582 226.576 36.3862 226.064 35.3195 225.04C34.2955 223.973 33.7835 222.459 33.7835 220.496V186.96C33.7835 184.997 34.2955 183.504 35.3195 182.48C36.3862 181.413 37.9222 180.88 39.9275 180.88H61.2395C62.7755 180.88 63.9275 181.264 64.6955 182.032C65.4635 182.8 65.8475 183.909 65.8475 185.36C65.8475 186.853 65.4635 188.005 64.6955 188.816C63.9275 189.584 62.7755 189.968 61.2395 189.968H45.5595V199.056H59.8315C61.3248 199.056 62.4555 199.44 63.2235 200.208C64.0342 200.976 64.4395 202.085 64.4395 203.536C64.4395 205.029 64.0342 206.16 63.2235 206.928C62.4555 207.696 61.3248 208.08 59.8315 208.08H45.5595V220.496C45.5595 224.549 43.6182 226.576 39.7355 226.576ZM76.798 226C74.9207 226 73.4487 225.488 72.382 224.464C71.358 223.397 70.846 221.925 70.846 220.048V186.768C70.846 184.848 71.358 183.376 72.382 182.352C73.406 181.328 74.8567 180.816 76.734 180.816C78.654 180.816 80.1047 181.328 81.086 182.352C82.11 183.376 82.622 184.848 82.622 186.768V216.208H98.238C99.8593 216.208 101.097 216.635 101.95 217.488C102.846 218.299 103.294 219.493 103.294 221.072C103.294 222.651 102.846 223.867 101.95 224.72C101.097 225.573 99.8593 226 98.238 226H76.798ZM127.544 226.704C122.978 226.704 118.968 225.744 115.512 223.824C112.056 221.861 109.368 219.131 107.448 215.632C105.57 212.133 104.632 208.059 104.632 203.408C104.632 199.909 105.165 196.731 106.232 193.872C107.341 191.013 108.898 188.56 110.904 186.512C112.952 184.464 115.384 182.907 118.2 181.84C121.016 180.731 124.13 180.176 127.544 180.176C132.109 180.176 136.098 181.136 139.512 183.056C142.968 184.976 145.656 187.685 147.576 191.184C149.496 194.64 150.456 198.715 150.456 203.408C150.456 206.907 149.901 210.085 148.792 212.944C147.725 215.803 146.168 218.277 144.12 220.368C142.114 222.416 139.704 223.995 136.888 225.104C134.072 226.171 130.957 226.704 127.544 226.704ZM127.544 216.848C129.805 216.848 131.725 216.315 133.304 215.248C134.882 214.181 136.098 212.645 136.951 210.64C137.805 208.635 138.232 206.224 138.232 203.408C138.232 199.184 137.293 195.899 135.416 193.552C133.538 191.205 130.914 190.032 127.544 190.032C125.325 190.032 123.405 190.565 121.784 191.632C120.205 192.656 118.989 194.171 118.135 196.176C117.282 198.139 116.856 200.549 116.856 203.408C116.856 207.632 117.794 210.939 119.672 213.328C121.549 215.675 124.173 216.848 127.544 216.848ZM173.757 226.576C172.178 226.576 170.898 226.213 169.917 225.488C168.936 224.72 168.168 223.547 167.613 221.968L155.133 187.216C154.45 185.296 154.557 183.675 155.453 182.352C156.392 180.987 158.034 180.304 160.381 180.304C161.96 180.304 163.197 180.688 164.093 181.456C164.989 182.181 165.693 183.333 166.205 184.912L175.741 213.52H172.733L182.973 184.912C183.57 183.333 184.317 182.181 185.213 181.456C186.109 180.688 187.261 180.304 188.669 180.304C190.077 180.304 191.208 180.688 192.061 181.456C192.914 182.181 193.618 183.355 194.173 184.976L203.773 213.52H201.213L211.005 184.912C211.517 183.333 212.2 182.181 213.053 181.456C213.949 180.688 215.186 180.304 216.765 180.304C218.728 180.304 220.157 180.987 221.053 182.352C221.992 183.675 222.098 185.296 221.373 187.216L208.765 222.032C208.21 223.568 207.442 224.72 206.461 225.488C205.522 226.213 204.264 226.576 202.685 226.576C201.064 226.576 199.762 226.213 198.781 225.488C197.842 224.72 197.096 223.547 196.541 221.968L187.517 196.624H189.117L179.901 222.032C179.304 223.568 178.536 224.72 177.597 225.488C176.658 226.213 175.378 226.576 173.757 226.576Z" fill="white"/>
<g clip-path="url(#clip0_303_3)">
<path d="M40.5167 84.0662C40.5167 84.0662 35.3364 84.0662 35.3364 89.2323V163.232C35.3364 163.232 35.3364 168.398 40.5167 168.398H209.581C209.581 168.398 214.762 168.398 214.762 163.232V89.2323C214.762 89.2323 214.762 84.0662 209.581 84.0662H40.5167V84.0662Z" stroke="#4ADE80" stroke-width="1.8"/>
<path d="M78.7326 145.543C78.7326 145.543 77.6965 145.543 77.6965 146.574V155.542C77.6965 155.542 77.6965 156.575 78.7326 156.575H170.926C170.926 156.575 171.962 156.575 171.962 155.542V146.574C171.962 146.574 171.962 145.543 170.926 145.543H78.7326Z" fill="#0EA5E9"/>
<path d="M178.528 145.543C178.528 145.543 177.492 145.543 177.492 146.574V155.542C177.492 155.542 177.492 156.575 178.528 156.575H202.272C202.272 156.575 203.308 156.575 203.308 155.542V146.574C203.308 146.574 203.308 145.543 202.272 145.543H178.528Z" fill="white"/>
<path d="M47.606 145.543C47.606 145.543 46.5699 145.543 46.5699 146.574V155.542C46.5699 155.542 46.5699 156.575 47.606 156.575H71.349C71.349 156.575 72.3851 156.575 72.3851 155.542V146.574C72.3851 146.574 72.3851 145.543 71.349 145.543H47.606Z" fill="white"/>
<path d="M95.5494 128.992C95.5494 128.992 94.5149 128.992 94.5149 130.024V138.991C94.5149 138.991 94.5149 140.024 95.5494 140.024H104.541C104.541 140.024 105.577 140.024 105.577 138.991V130.024C105.577 130.024 105.577 128.992 104.541 128.992H95.5494Z" fill="white"/>
<path d="M78.9532 128.992C78.9532 128.992 77.9171 128.992 77.9171 130.024V138.991C77.9171 138.991 77.9171 140.024 78.9532 140.024H87.9452C87.9452 140.024 88.9796 140.024 88.9796 138.991V130.024C88.9796 130.024 88.9796 128.992 87.9452 128.992H78.9532Z" fill="white"/>
<path d="M47.606 128.992C47.606 128.992 46.5699 128.992 46.5699 130.024V138.991C46.5699 138.991 46.5699 140.024 47.606 140.024H71.349C71.349 140.024 72.3851 140.024 72.3851 138.991V130.024C72.3851 130.024 72.3851 128.992 71.349 128.992H47.606Z" fill="white"/>
<path d="M112.146 128.992C112.146 128.992 111.109 128.992 111.109 130.024V138.991C111.109 138.991 111.11 140.024 112.146 140.024H121.138C121.138 140.024 122.172 140.024 122.172 138.991V130.024C122.172 130.024 122.172 128.992 121.138 128.992H112.146Z" fill="white"/>
<path d="M128.742 128.992C128.742 128.992 127.707 128.992 127.707 130.024V138.991C127.707 138.991 127.707 140.024 128.742 140.024H137.734C137.734 140.024 138.77 140.024 138.77 138.991V130.024C138.77 130.024 138.77 128.992 137.734 128.992H128.742Z" fill="white"/>
<path d="M145.336 128.992C145.336 128.992 144.3 128.992 144.3 130.024V138.991C144.3 138.991 144.3 140.024 145.336 140.024H154.328C154.328 140.024 155.363 140.024 155.363 138.991V130.024C155.363 130.024 155.363 128.992 154.328 128.992H145.336Z" fill="white"/>
<path d="M161.932 128.992C161.932 128.992 160.898 128.992 160.898 130.024V138.991C160.898 138.991 160.898 140.024 161.932 140.024H170.924C170.924 140.024 171.96 140.024 171.96 138.991V130.024C171.96 130.024 171.96 128.992 170.924 128.992H161.932Z" fill="white"/>
<path d="M178.528 128.992C178.528 128.992 177.492 128.992 177.492 130.024V138.991C177.492 138.991 177.492 140.024 178.528 140.024H202.494C202.494 140.024 203.528 140.024 203.528 138.991V130.024C203.528 130.024 203.528 128.992 202.494 128.992H178.528Z" fill="white"/>
<path d="M88.1739 112.441C88.1739 112.441 87.1378 112.441 87.1378 113.473V122.44C87.1378 122.44 87.1378 123.474 88.1739 123.474H97.1659C97.1659 123.474 98.2019 123.474 98.2019 122.44V113.473C98.2019 113.473 98.2019 112.441 97.1659 112.441H88.1739Z" fill="white"/>
<path d="M71.5777 112.441C71.5777 112.441 70.5416 112.441 70.5416 113.473V122.44C70.5416 122.44 70.5416 123.474 71.5777 123.474H80.5697C80.5697 123.474 81.6057 123.474 81.6057 122.44V113.473C81.6057 113.473 81.6057 112.441 80.5697 112.441H71.5777Z" fill="white"/>
<path d="M47.606 112.441C47.606 112.441 46.5699 112.441 46.5699 113.473V122.44C46.5699 122.44 46.5699 123.474 47.606 123.474H63.9735C63.9735 123.474 65.0096 123.474 65.0096 122.44V113.473C65.0096 113.473 65.0096 112.441 63.9735 112.441H47.606Z" fill="white"/>
<path d="M104.768 112.441C104.768 112.441 103.732 112.441 103.732 113.473V122.44C103.732 122.44 103.732 123.474 104.768 123.474H113.76C113.76 123.474 114.796 123.474 114.796 122.44V113.473C114.796 113.473 114.796 112.441 113.76 112.441H104.768Z" fill="white"/>
<path d="M121.365 112.441C121.365 112.441 120.33 112.441 120.33 113.473V122.44C120.33 122.44 120.33 123.474 121.365 123.474H130.357C130.357 123.474 131.393 123.474 131.393 122.44V113.473C131.393 113.473 131.393 112.441 130.357 112.441H121.365Z" fill="white"/>
<path d="M137.961 112.441C137.961 112.441 136.925 112.441 136.925 113.473V122.44C136.925 122.44 136.925 123.474 137.961 123.474H146.953C146.953 123.474 147.987 123.474 147.987 122.44V113.473C147.987 113.473 147.987 112.441 146.953 112.441H137.961Z" fill="white"/>
<path d="M154.557 112.441C154.557 112.441 153.522 112.441 153.522 113.473V122.44C153.522 122.44 153.522 123.474 154.557 123.474H163.549C163.549 123.474 164.585 123.474 164.585 122.44V113.473C164.585 113.473 164.585 112.441 163.549 112.441H154.557Z" fill="white"/>
<path d="M171.153 112.441C171.153 112.441 170.117 112.441 170.117 113.473V122.44C170.117 122.44 170.117 123.474 171.153 123.474H180.145C180.145 123.474 181.179 123.474 181.179 122.44V113.473C181.179 113.473 181.179 112.441 180.145 112.441H171.153Z" fill="white"/>
<path d="M187.749 112.441C187.749 112.441 186.715 112.441 186.715 113.473V122.44C186.715 122.44 186.715 123.474 187.749 123.474H202.494C202.494 123.474 203.53 123.474 203.53 122.44V113.473C203.53 113.473 203.53 112.441 202.494 112.441H187.749Z" fill="white"/>
<path d="M128.331 95.8892C128.331 95.8892 127.296 95.8892 127.296 96.9224V105.89C127.296 105.89 127.296 106.923 128.331 106.923H137.324C137.324 106.923 138.359 106.923 138.359 105.89V96.9224C138.359 96.9224 138.359 95.8892 137.324 95.8892H128.331Z" fill="white"/>
<path d="M112.185 95.8892C112.185 95.8892 111.151 95.8892 111.151 96.9224V105.89C111.151 105.89 111.151 106.923 112.185 106.923H121.179C121.179 106.923 122.213 106.923 122.213 105.89V96.9224C122.213 96.9224 122.214 95.8892 121.179 95.8892H112.185Z" fill="white"/>
<path d="M96.0402 95.8892C96.0402 95.8892 95.0042 95.8892 95.0042 96.9224V105.89C95.0042 105.89 95.0041 106.923 96.0402 106.923H105.032C105.032 106.923 106.067 106.923 106.067 105.89V96.9224C106.067 96.9224 106.067 95.8892 105.032 95.8892H96.0402Z" fill="white"/>
<path d="M79.8967 95.8892C79.8967 95.8892 78.8606 95.8892 78.8606 96.9224V105.89C78.8606 105.89 78.8606 106.923 79.8967 106.923H88.8886C88.8886 106.923 89.9231 106.923 89.9231 105.89V96.9224C89.9231 96.9224 89.9231 95.8892 88.8886 95.8892H79.8967Z" fill="white"/>
<path d="M63.7513 95.8892C63.7513 95.8892 62.7152 95.8892 62.7152 96.9224V105.89C62.7152 105.89 62.7152 106.923 63.7513 106.923H72.7432C72.7432 106.923 73.7793 106.923 73.7793 105.89V96.9224C73.7793 96.9224 73.7793 95.8892 72.7432 95.8892H63.7513Z" fill="white"/>
<path d="M47.606 95.8892C47.606 95.8892 46.5699 95.8892 46.5699 96.9224V105.89C46.5699 105.89 46.5699 106.923 47.606 106.923H56.598C56.598 106.923 57.634 106.923 57.634 105.89V96.9224C57.634 96.9224 57.634 95.8892 56.598 95.8892H47.606Z" fill="#0EA5E9"/>
<path d="M144.476 95.8892C144.476 95.8892 143.442 95.8892 143.442 96.9224V105.89C143.442 105.89 143.442 106.923 144.476 106.923H153.468C153.468 106.923 154.504 106.923 154.504 105.89V96.9224C154.504 96.9224 154.504 95.8892 153.468 95.8892H144.476Z" fill="white"/>
<path d="M160.623 95.8892C160.623 95.8892 159.587 95.8892 159.587 96.9224V105.89C159.587 105.89 159.587 106.923 160.623 106.923H169.613C169.613 106.923 170.649 106.923 170.649 105.89V96.9224C170.649 96.9224 170.649 95.8892 169.613 95.8892H160.623Z" fill="white"/>
<path d="M176.768 95.8892C176.768 95.8892 175.732 95.8892 175.732 96.9224V105.89C175.732 105.89 175.732 106.923 176.768 106.923H185.759C185.759 106.923 186.795 106.923 186.795 105.89V96.9224C186.795 96.9224 186.795 95.8892 185.759 95.8892H176.768Z" fill="white"/>
<path d="M192.912 95.8892C192.912 95.8892 191.876 95.8892 191.876 96.9224V105.89C191.876 105.89 191.876 106.923 192.912 106.923H201.904C201.904 106.923 202.938 106.923 202.938 105.89V96.9224C202.938 96.9224 202.938 95.8892 201.904 95.8892H192.912Z" fill="white"/>
</g>
<defs>
<clipPath id="clip0_303_3">
<rect width="182" height="87" fill="white" transform="translate(34 83)"/>
</clipPath>
</defs>
</svg>
