<svg width="253" height="253" viewBox="0 0 253 253" fill="none" xmlns="http://www.w3.org/2000/svg">
<rect width="253" height="253" rx="13" fill="#1E293B"/>
<path d="M84.1481 41C77.8071 41 72.6667 46.1404 72.6667 52.4815V123.667C72.6667 130.008 77.8071 135.148 84.1481 135.148H173.704C180.045 135.148 185.185 130.008 185.185 123.667V52.4815C185.185 46.1404 180.045 41 173.704 41M84.1481 41C77.7245 41 64.4539 49.9524 60.2863 54.2037C56.2259 58.3456 52 62.2971 52 68.5556V142.037C52 154.719 62.2809 165 74.963 165H181.741C194.423 165 204.704 154.719 204.704 142.037V68.5556C204.704 62.2971 202.2 58.3456 198.14 54.2037C193.972 49.9524 180.127 41 173.704 41M84.1481 41H173.704M76.1111 131.866L58.5768 156.602M181.741 131.866L199.275 156.602" stroke="url(#paint0_radial)" stroke-width="2"/>
<path d="M137.873 82.247C130.651 77.883 134.038 71.7236 134.183 71.4676C134.394 71.1033 134.393 70.655 134.181 70.2913C133.969 69.9276 133.578 69.7037 133.155 69.7037C129.437 69.7037 126.526 70.7528 124.502 72.8219C121.044 76.3573 121.204 81.8597 121.273 84.2094C121.28 84.4697 121.287 84.6946 121.287 84.8617C121.287 86.6063 121.569 88.2168 121.817 89.6379C121.978 90.5537 122.116 91.3445 122.141 91.9661C122.167 92.6319 122.045 92.7843 122.04 92.7905C122.022 92.8111 121.877 92.8879 121.483 92.8879C121.035 92.8879 120.705 92.7424 120.412 92.4163C119.267 91.1422 119.188 87.6636 119.407 85.771C119.446 85.4373 119.34 85.103 119.115 84.8521C118.89 84.6013 118.568 84.4578 118.23 84.4578C115.152 84.4578 112.852 89.4565 112.852 93.9258C112.852 96.0268 113.277 98.0849 114.117 100.043C114.928 101.936 116.085 103.644 117.556 105.121C120.618 108.196 124.656 109.889 128.925 109.889C133.212 109.889 137.249 108.219 140.293 105.188C143.328 102.165 145 98.1653 145 93.9256C145 88.5163 140.738 83.9778 137.873 82.247Z" fill="url(#paint1_linear)"/>
<path d="M41.214 228.214C41.358 228.214 41.502 228.244 41.646 228.304C41.79 228.352 41.928 228.442 42.06 228.574L44.472 231.112C43.416 232.492 42.09 233.536 40.494 234.244C38.91 234.94 37.032 235.288 34.86 235.288C32.868 235.288 31.08 234.952 29.496 234.28C27.924 233.596 26.586 232.66 25.482 231.472C24.39 230.272 23.55 228.856 22.962 227.224C22.374 225.58 22.08 223.798 22.08 221.878C22.08 219.922 22.398 218.128 23.034 216.496C23.67 214.852 24.564 213.436 25.716 212.248C26.868 211.06 28.248 210.136 29.856 209.476C31.464 208.816 33.234 208.486 35.166 208.486C36.15 208.486 37.074 208.576 37.938 208.756C38.814 208.924 39.63 209.164 40.386 209.476C41.142 209.776 41.838 210.142 42.474 210.574C43.11 211.006 43.674 211.474 44.166 211.978L42.114 214.732C41.982 214.9 41.826 215.056 41.646 215.2C41.466 215.332 41.214 215.398 40.89 215.398C40.674 215.398 40.47 215.35 40.278 215.254C40.086 215.158 39.882 215.044 39.666 214.912C39.45 214.768 39.21 214.618 38.946 214.462C38.694 214.294 38.388 214.144 38.028 214.012C37.68 213.868 37.266 213.748 36.786 213.652C36.318 213.556 35.766 213.508 35.13 213.508C34.122 213.508 33.198 213.694 32.358 214.066C31.53 214.438 30.81 214.984 30.198 215.704C29.598 216.412 29.13 217.288 28.794 218.332C28.47 219.364 28.308 220.546 28.308 221.878C28.308 223.222 28.488 224.416 28.848 225.46C29.22 226.504 29.718 227.386 30.342 228.106C30.978 228.814 31.716 229.354 32.556 229.726C33.396 230.098 34.296 230.284 35.256 230.284C35.808 230.284 36.312 230.26 36.768 230.212C37.224 230.152 37.65 230.062 38.046 229.942C38.442 229.81 38.814 229.642 39.162 229.438C39.51 229.222 39.864 228.952 40.224 228.628C40.368 228.508 40.524 228.412 40.692 228.34C40.86 228.256 41.034 228.214 41.214 228.214ZM72.2702 221.878C72.2702 223.774 71.9402 225.538 71.2802 227.17C70.6322 228.802 69.7142 230.224 68.5262 231.436C67.3382 232.636 65.9042 233.578 64.2242 234.262C62.5562 234.946 60.7022 235.288 58.6622 235.288C56.6222 235.288 54.7622 234.946 53.0822 234.262C51.4022 233.578 49.9622 232.636 48.7622 231.436C47.5742 230.224 46.6502 228.802 45.9902 227.17C45.3422 225.538 45.0182 223.774 45.0182 221.878C45.0182 219.982 45.3422 218.218 45.9902 216.586C46.6502 214.954 47.5742 213.538 48.7622 212.338C49.9622 211.138 51.4022 210.196 53.0822 209.512C54.7622 208.828 56.6222 208.486 58.6622 208.486C60.7022 208.486 62.5562 208.834 64.2242 209.53C65.9042 210.214 67.3382 211.156 68.5262 212.356C69.7142 213.556 70.6322 214.972 71.2802 216.604C71.9402 218.236 72.2702 219.994 72.2702 221.878ZM66.0422 221.878C66.0422 220.582 65.8742 219.418 65.5382 218.386C65.2022 217.342 64.7162 216.46 64.0802 215.74C63.4562 215.02 62.6882 214.468 61.7762 214.084C60.8642 213.7 59.8262 213.508 58.6622 213.508C57.4862 213.508 56.4362 213.7 55.5122 214.084C54.6002 214.468 53.8262 215.02 53.1902 215.74C52.5662 216.46 52.0862 217.342 51.7502 218.386C51.4142 219.418 51.2462 220.582 51.2462 221.878C51.2462 223.186 51.4142 224.362 51.7502 225.406C52.0862 226.438 52.5662 227.314 53.1902 228.034C53.8262 228.754 54.6002 229.306 55.5122 229.69C56.4362 230.062 57.4862 230.248 58.6622 230.248C59.8262 230.248 60.8642 230.062 61.7762 229.69C62.6882 229.306 63.4562 228.754 64.0802 228.034C64.7162 227.314 65.2022 226.438 65.5382 225.406C65.8742 224.362 66.0422 223.186 66.0422 221.878ZM99.6465 221.878C99.6465 223.774 99.3165 225.526 98.6565 227.134C98.0085 228.73 97.0905 230.116 95.9025 231.292C94.7145 232.456 93.2805 233.368 91.6005 234.028C89.9325 234.676 88.0785 235 86.0385 235H75.8505V208.774H86.0385C88.0785 208.774 89.9325 209.104 91.6005 209.764C93.2805 210.424 94.7145 211.336 95.9025 212.5C97.0905 213.664 98.0085 215.05 98.6565 216.658C99.3165 218.254 99.6465 219.994 99.6465 221.878ZM93.4185 221.878C93.4185 220.582 93.2505 219.412 92.9145 218.368C92.5785 217.324 92.0925 216.442 91.4565 215.722C90.8325 214.99 90.0645 214.432 89.1525 214.048C88.2405 213.652 87.2025 213.454 86.0385 213.454H81.9705V230.32H86.0385C87.2025 230.32 88.2405 230.128 89.1525 229.744C90.0645 229.348 90.8325 228.79 91.4565 228.07C92.0925 227.338 92.5785 226.45 92.9145 225.406C93.2505 224.362 93.4185 223.186 93.4185 221.878ZM109.357 213.454V219.574H117.601V224.074H109.357V230.32H120.121V235H103.237V208.774H120.121V213.454H109.357ZM138.326 213.454V220.096H147.29V224.794H138.326V235H132.206V208.774H149.09V213.454H138.326ZM168.401 230.14V235H152.597V208.774H158.681V230.14H168.401ZM196.618 221.878C196.618 223.774 196.288 225.538 195.628 227.17C194.98 228.802 194.062 230.224 192.874 231.436C191.686 232.636 190.252 233.578 188.572 234.262C186.904 234.946 185.05 235.288 183.01 235.288C180.97 235.288 179.11 234.946 177.43 234.262C175.75 233.578 174.31 232.636 173.11 231.436C171.922 230.224 170.998 228.802 170.338 227.17C169.69 225.538 169.366 223.774 169.366 221.878C169.366 219.982 169.69 218.218 170.338 216.586C170.998 214.954 171.922 213.538 173.11 212.338C174.31 211.138 175.75 210.196 177.43 209.512C179.11 208.828 180.97 208.486 183.01 208.486C185.05 208.486 186.904 208.834 188.572 209.53C190.252 210.214 191.686 211.156 192.874 212.356C194.062 213.556 194.98 214.972 195.628 216.604C196.288 218.236 196.618 219.994 196.618 221.878ZM190.39 221.878C190.39 220.582 190.222 219.418 189.886 218.386C189.55 217.342 189.064 216.46 188.428 215.74C187.804 215.02 187.036 214.468 186.124 214.084C185.212 213.7 184.174 213.508 183.01 213.508C181.834 213.508 180.784 213.7 179.86 214.084C178.948 214.468 178.174 215.02 177.538 215.74C176.914 216.46 176.434 217.342 176.098 218.386C175.762 219.418 175.594 220.582 175.594 221.878C175.594 223.186 175.762 224.362 176.098 225.406C176.434 226.438 176.914 227.314 177.538 228.034C178.174 228.754 178.948 229.306 179.86 229.69C180.784 230.062 181.834 230.248 183.01 230.248C184.174 230.248 185.212 230.062 186.124 229.69C187.036 229.306 187.804 228.754 188.428 228.034C189.064 227.314 189.55 226.438 189.886 225.406C190.222 224.362 190.39 223.186 190.39 221.878ZM235.26 208.774L227.16 235H221.652L216.72 218.746C216.624 218.494 216.534 218.218 216.45 217.918C216.366 217.606 216.282 217.282 216.198 216.946C216.114 217.282 216.03 217.606 215.946 217.918C215.862 218.218 215.772 218.494 215.676 218.746L210.672 235H205.164L197.064 208.774H202.176C202.704 208.774 203.142 208.894 203.49 209.134C203.85 209.374 204.084 209.692 204.192 210.088L207.792 223.768C207.9 224.2 208.008 224.674 208.116 225.19C208.224 225.694 208.332 226.222 208.44 226.774C208.656 225.646 208.92 224.644 209.232 223.768L213.48 210.088C213.588 209.752 213.816 209.452 214.164 209.188C214.524 208.912 214.956 208.774 215.46 208.774H217.26C217.788 208.774 218.214 208.9 218.538 209.152C218.862 209.392 219.108 209.704 219.276 210.088L223.488 223.768C223.8 224.608 224.064 225.562 224.28 226.63C224.376 226.09 224.472 225.586 224.568 225.118C224.676 224.638 224.784 224.188 224.892 223.768L228.492 210.088C228.588 209.74 228.816 209.434 229.176 209.17C229.536 208.906 229.968 208.774 230.472 208.774H235.26Z" fill="#EEF2FF"/>
<defs>
<radialGradient id="paint0_radial" cx="0" cy="0" r="1" gradientUnits="userSpaceOnUse" gradientTransform="translate(128 41) rotate(89.562) scale(121.133 138.734)">
<stop offset="0.338542" stop-color="#EC4899"/>
<stop offset="0.625" stop-color="#F87171"/>
<stop offset="0.864583" stop-color="#0EA5E9"/>
<stop offset="1" stop-color="#9333EA"/>
</radialGradient>
<linearGradient id="paint1_linear" x1="128.926" y1="69.7037" x2="128.926" y2="109.889" gradientUnits="userSpaceOnUse">
<stop stop-color="#EC4899"/>
<stop offset="1" stop-color="#F87171"/>
</linearGradient>
</defs>
</svg>
