<svg width="253" height="253" viewBox="0 0 253 253" fill="none" xmlns="http://www.w3.org/2000/svg">
<rect width="253" height="253" rx="13" fill="#1E293B"/>
<path d="M66.8148 42C58.1726 42 51.1667 49.0059 51.1667 57.6481V154.667C51.1667 163.309 58.1726 170.315 66.8148 170.315H188.87C197.513 170.315 204.519 163.309 204.519 154.667V57.6481C204.519 49.0059 197.513 42 188.87 42M66.8148 42C58.06 42 39.9735 54.2013 34.2935 59.9954C28.7595 65.6404 23 71.0259 23 79.5556V179.704C23 196.988 37.0118 211 54.2963 211H199.824C217.109 211 231.12 196.988 231.12 179.704V79.5556C231.12 71.0259 227.708 65.6404 222.174 59.9954C216.494 54.2013 197.625 42 188.87 42M66.8148 42H188.87M55.8611 165.842L31.9636 199.554M199.824 165.842L223.722 199.554" stroke="url(#paint0_radial)" stroke-width="2"/>
<path d="M133.64 81.1536L133.638 81.1571C133.521 81.3623 132.268 83.6418 132.322 86.6591C132.376 89.7202 133.777 93.4624 138.843 96.5232C140.734 97.6658 143.112 99.7534 145.013 102.461C146.914 105.167 148.315 108.458 148.315 112.012C148.315 117.656 146.09 122.98 142.046 127.008C137.992 131.046 132.617 133.269 126.907 133.269C121.223 133.269 115.847 131.015 111.765 126.917L111.434 127.247L111.765 126.917C109.805 124.949 108.264 122.674 107.183 120.153C106.066 117.545 105.5 114.807 105.5 112.012C105.5 109.043 106.266 105.898 107.533 103.511C108.817 101.093 110.52 99.6084 112.33 99.6084C112.649 99.6084 112.952 99.744 113.164 99.9796L113.164 99.9797C113.375 100.215 113.474 100.528 113.438 100.84L113.438 100.841C113.285 102.164 113.236 104.031 113.425 105.796C113.519 106.679 113.675 107.548 113.912 108.317C114.147 109.08 114.473 109.779 114.931 110.289L114.931 110.289C115.428 110.842 116.015 111.098 116.764 111.098C117.063 111.098 117.288 111.069 117.455 111.027C117.539 111.007 117.612 110.982 117.676 110.953C117.707 110.939 117.74 110.922 117.772 110.901C117.796 110.886 117.852 110.849 117.904 110.788L117.904 110.788L117.907 110.784C118.032 110.633 118.197 110.271 118.159 109.322L118.159 109.322C118.125 108.441 117.931 107.336 117.717 106.113L117.712 106.082C117.372 104.142 116.996 101.987 116.996 99.6589C116.996 99.4221 116.987 99.1072 116.977 98.7551C116.93 97.1543 116.854 94.5258 117.367 91.7052C117.88 88.8842 118.974 85.9119 121.236 83.5994L121.236 83.5994C123.875 80.9009 127.699 79.5 132.672 79.5C133.072 79.5 133.439 79.7117 133.638 80.0526L133.638 80.0526C133.837 80.3932 133.837 80.8125 133.64 81.1536Z" stroke="url(#paint1_linear)"/>
<defs>
<radialGradient id="paint0_radial" cx="0" cy="0" r="1" gradientUnits="userSpaceOnUse" gradientTransform="translate(126.581 42) rotate(89.562) scale(165.093 189.081)">
<stop offset="0.338542" stop-color="#EC4899"/>
<stop offset="0.625" stop-color="#F87171"/>
<stop offset="0.864583" stop-color="#0EA5E9"/>
<stop offset="1" stop-color="#9333EA"/>
</radialGradient>
<linearGradient id="paint1_linear" x1="126.907" y1="79" x2="126.907" y2="133.769" gradientUnits="userSpaceOnUse">
<stop stop-color="#EC4899"/>
<stop offset="1" stop-color="#F87171"/>
</linearGradient>
</defs>
</svg>
