<svg width="253" height="253" viewBox="0 0 253 253" fill="none" xmlns="http://www.w3.org/2000/svg">
<rect width="253" height="253" rx="13" fill="#1E293B"/>
<path d="M39.214 60.214C39.358 60.214 39.502 60.244 39.646 60.304C39.79 60.352 39.928 60.442 40.06 60.574L42.472 63.112C41.416 64.492 40.09 65.536 38.494 66.244C36.91 66.94 35.032 67.288 32.86 67.288C30.868 67.288 29.08 66.952 27.496 66.28C25.924 65.596 24.586 64.66 23.482 63.472C22.39 62.272 21.55 60.856 20.962 59.224C20.374 57.58 20.08 55.798 20.08 53.878C20.08 51.922 20.398 50.128 21.034 48.496C21.67 46.852 22.564 45.436 23.716 44.248C24.868 43.06 26.248 42.136 27.856 41.476C29.464 40.816 31.234 40.486 33.166 40.486C34.15 40.486 35.074 40.576 35.938 40.756C36.814 40.924 37.63 41.164 38.386 41.476C39.142 41.776 39.838 42.142 40.474 42.574C41.11 43.006 41.674 43.474 42.166 43.978L40.114 46.732C39.982 46.9 39.826 47.056 39.646 47.2C39.466 47.332 39.214 47.398 38.89 47.398C38.674 47.398 38.47 47.35 38.278 47.254C38.086 47.158 37.882 47.044 37.666 46.912C37.45 46.768 37.21 46.618 36.946 46.462C36.694 46.294 36.388 46.144 36.028 46.012C35.68 45.868 35.266 45.748 34.786 45.652C34.318 45.556 33.766 45.508 33.13 45.508C32.122 45.508 31.198 45.694 30.358 46.066C29.53 46.438 28.81 46.984 28.198 47.704C27.598 48.412 27.13 49.288 26.794 50.332C26.47 51.364 26.308 52.546 26.308 53.878C26.308 55.222 26.488 56.416 26.848 57.46C27.22 58.504 27.718 59.386 28.342 60.106C28.978 60.814 29.716 61.354 30.556 61.726C31.396 62.098 32.296 62.284 33.256 62.284C33.808 62.284 34.312 62.26 34.768 62.212C35.224 62.152 35.65 62.062 36.046 61.942C36.442 61.81 36.814 61.642 37.162 61.438C37.51 61.222 37.864 60.952 38.224 60.628C38.368 60.508 38.524 60.412 38.692 60.34C38.86 60.256 39.034 60.214 39.214 60.214ZM70.2702 53.878C70.2702 55.774 69.9402 57.538 69.2802 59.17C68.6322 60.802 67.7142 62.224 66.5262 63.436C65.3382 64.636 63.9042 65.578 62.2242 66.262C60.5562 66.946 58.7022 67.288 56.6622 67.288C54.6222 67.288 52.7622 66.946 51.0822 66.262C49.4022 65.578 47.9622 64.636 46.7622 63.436C45.5742 62.224 44.6502 60.802 43.9902 59.17C43.3422 57.538 43.0182 55.774 43.0182 53.878C43.0182 51.982 43.3422 50.218 43.9902 48.586C44.6502 46.954 45.5742 45.538 46.7622 44.338C47.9622 43.138 49.4022 42.196 51.0822 41.512C52.7622 40.828 54.6222 40.486 56.6622 40.486C58.7022 40.486 60.5562 40.834 62.2242 41.53C63.9042 42.214 65.3382 43.156 66.5262 44.356C67.7142 45.556 68.6322 46.972 69.2802 48.604C69.9402 50.236 70.2702 51.994 70.2702 53.878ZM64.0422 53.878C64.0422 52.582 63.8742 51.418 63.5382 50.386C63.2022 49.342 62.7162 48.46 62.0802 47.74C61.4562 47.02 60.6882 46.468 59.7762 46.084C58.8642 45.7 57.8262 45.508 56.6622 45.508C55.4862 45.508 54.4362 45.7 53.5122 46.084C52.6002 46.468 51.8262 47.02 51.1902 47.74C50.5662 48.46 50.0862 49.342 49.7502 50.386C49.4142 51.418 49.2462 52.582 49.2462 53.878C49.2462 55.186 49.4142 56.362 49.7502 57.406C50.0862 58.438 50.5662 59.314 51.1902 60.034C51.8262 60.754 52.6002 61.306 53.5122 61.69C54.4362 62.062 55.4862 62.248 56.6622 62.248C57.8262 62.248 58.8642 62.062 59.7762 61.69C60.6882 61.306 61.4562 60.754 62.0802 60.034C62.7162 59.314 63.2022 58.438 63.5382 57.406C63.8742 56.362 64.0422 55.186 64.0422 53.878ZM97.6465 53.878C97.6465 55.774 97.3165 57.526 96.6565 59.134C96.0085 60.73 95.0905 62.116 93.9025 63.292C92.7145 64.456 91.2805 65.368 89.6005 66.028C87.9325 66.676 86.0785 67 84.0385 67H73.8505V40.774H84.0385C86.0785 40.774 87.9325 41.104 89.6005 41.764C91.2805 42.424 92.7145 43.336 93.9025 44.5C95.0905 45.664 96.0085 47.05 96.6565 48.658C97.3165 50.254 97.6465 51.994 97.6465 53.878ZM91.4185 53.878C91.4185 52.582 91.2505 51.412 90.9145 50.368C90.5785 49.324 90.0925 48.442 89.4565 47.722C88.8325 46.99 88.0645 46.432 87.1525 46.048C86.2405 45.652 85.2025 45.454 84.0385 45.454H79.9705V62.32H84.0385C85.2025 62.32 86.2405 62.128 87.1525 61.744C88.0645 61.348 88.8325 60.79 89.4565 60.07C90.0925 59.338 90.5785 58.45 90.9145 57.406C91.2505 56.362 91.4185 55.186 91.4185 53.878ZM107.357 45.454V51.574H115.601V56.074H107.357V62.32H118.121V67H101.237V40.774H118.121V45.454H107.357ZM136.326 45.454V52.096H145.29V56.794H136.326V67H130.206V40.774H147.09V45.454H136.326ZM166.401 62.14V67H150.597V40.774H156.681V62.14H166.401ZM194.618 53.878C194.618 55.774 194.288 57.538 193.628 59.17C192.98 60.802 192.062 62.224 190.874 63.436C189.686 64.636 188.252 65.578 186.572 66.262C184.904 66.946 183.05 67.288 181.01 67.288C178.97 67.288 177.11 66.946 175.43 66.262C173.75 65.578 172.31 64.636 171.11 63.436C169.922 62.224 168.998 60.802 168.338 59.17C167.69 57.538 167.366 55.774 167.366 53.878C167.366 51.982 167.69 50.218 168.338 48.586C168.998 46.954 169.922 45.538 171.11 44.338C172.31 43.138 173.75 42.196 175.43 41.512C177.11 40.828 178.97 40.486 181.01 40.486C183.05 40.486 184.904 40.834 186.572 41.53C188.252 42.214 189.686 43.156 190.874 44.356C192.062 45.556 192.98 46.972 193.628 48.604C194.288 50.236 194.618 51.994 194.618 53.878ZM188.39 53.878C188.39 52.582 188.222 51.418 187.886 50.386C187.55 49.342 187.064 48.46 186.428 47.74C185.804 47.02 185.036 46.468 184.124 46.084C183.212 45.7 182.174 45.508 181.01 45.508C179.834 45.508 178.784 45.7 177.86 46.084C176.948 46.468 176.174 47.02 175.538 47.74C174.914 48.46 174.434 49.342 174.098 50.386C173.762 51.418 173.594 52.582 173.594 53.878C173.594 55.186 173.762 56.362 174.098 57.406C174.434 58.438 174.914 59.314 175.538 60.034C176.174 60.754 176.948 61.306 177.86 61.69C178.784 62.062 179.834 62.248 181.01 62.248C182.174 62.248 183.212 62.062 184.124 61.69C185.036 61.306 185.804 60.754 186.428 60.034C187.064 59.314 187.55 58.438 187.886 57.406C188.222 56.362 188.39 55.186 188.39 53.878ZM233.26 40.774L225.16 67H219.652L214.72 50.746C214.624 50.494 214.534 50.218 214.45 49.918C214.366 49.606 214.282 49.282 214.198 48.946C214.114 49.282 214.03 49.606 213.946 49.918C213.862 50.218 213.772 50.494 213.676 50.746L208.672 67H203.164L195.064 40.774H200.176C200.704 40.774 201.142 40.894 201.49 41.134C201.85 41.374 202.084 41.692 202.192 42.088L205.792 55.768C205.9 56.2 206.008 56.674 206.116 57.19C206.224 57.694 206.332 58.222 206.44 58.774C206.656 57.646 206.92 56.644 207.232 55.768L211.48 42.088C211.588 41.752 211.816 41.452 212.164 41.188C212.524 40.912 212.956 40.774 213.46 40.774H215.26C215.788 40.774 216.214 40.9 216.538 41.152C216.862 41.392 217.108 41.704 217.276 42.088L221.488 55.768C221.8 56.608 222.064 57.562 222.28 58.63C222.376 58.09 222.472 57.586 222.568 57.118C222.676 56.638 222.784 56.188 222.892 55.768L226.492 42.088C226.588 41.74 226.816 41.434 227.176 41.17C227.536 40.906 227.968 40.774 228.472 40.774H233.26Z" fill="#EEF2FF"/>
<path d="M44.6973 215.955C44.6973 216.26 44.6387 216.547 44.5215 216.816C44.4043 217.086 44.2344 217.332 44.0117 217.555C43.6484 217.918 43.1445 218.205 42.5 218.416C41.8555 218.615 41.0996 218.715 40.2324 218.715C39.6816 218.715 39.125 218.656 38.5625 218.539C38 218.422 37.4902 218.223 37.0332 217.941C36.5645 217.66 36.1719 217.291 35.8555 216.834C35.5508 216.377 35.375 215.814 35.3281 215.146H32.0762C32.0762 215.955 32.2578 216.734 32.6211 217.484C32.9961 218.234 33.5352 218.891 34.2383 219.453C34.9297 220.027 35.7793 220.49 36.7871 220.842C37.7949 221.182 38.9434 221.352 40.2324 221.352C41.3574 221.352 42.3945 221.217 43.3438 220.947C44.293 220.678 45.1074 220.297 45.7871 219.805C46.4668 219.312 46.9941 218.721 47.3691 218.029C47.7559 217.338 47.9492 216.57 47.9492 215.727C47.9492 214.941 47.7793 214.25 47.4395 213.652C47.1113 213.055 46.6309 212.527 45.998 212.07C45.3652 211.625 44.5859 211.244 43.6602 210.928C42.7344 210.6 41.6855 210.312 40.5137 210.066C39.623 209.891 38.8848 209.709 38.2988 209.521C37.7246 209.334 37.2676 209.123 36.9277 208.889C36.5762 208.654 36.3301 208.391 36.1895 208.098C36.0488 207.805 35.9785 207.471 35.9785 207.096C35.9785 206.732 36.0664 206.381 36.2422 206.041C36.418 205.701 36.6816 205.402 37.0332 205.145C37.373 204.887 37.8008 204.682 38.3164 204.529C38.8438 204.377 39.4531 204.301 40.1445 204.301C40.8125 204.301 41.4102 204.395 41.9375 204.582C42.4766 204.77 42.9336 205.016 43.3086 205.32C43.6836 205.625 43.9766 205.977 44.1875 206.375C44.3984 206.762 44.5039 207.16 44.5039 207.57H47.7559C47.7559 206.738 47.5742 205.965 47.2109 205.25C46.8594 204.523 46.3555 203.891 45.6992 203.352C45.043 202.812 44.2461 202.391 43.3086 202.086C42.3711 201.781 41.3164 201.629 40.1445 201.629C39.0547 201.629 38.0527 201.775 37.1387 202.068C36.2363 202.361 35.457 202.76 34.8008 203.264C34.1445 203.768 33.6348 204.359 33.2715 205.039C32.9082 205.707 32.7266 206.428 32.7266 207.201C32.7266 207.986 32.9023 208.678 33.2539 209.275C33.6055 209.861 34.1035 210.371 34.748 210.805C35.3809 211.25 36.1426 211.631 37.0332 211.947C37.9355 212.264 38.9316 212.533 40.0215 212.756C40.9121 212.932 41.6562 213.131 42.2539 213.354C42.8516 213.564 43.332 213.799 43.6953 214.057C44.0586 214.314 44.3164 214.602 44.4688 214.918C44.6211 215.223 44.6973 215.568 44.6973 215.955ZM56.9316 204.811V194H53.6797V221H56.9316V207.184C57.166 206.809 57.4297 206.469 57.7227 206.164C58.0273 205.848 58.3555 205.572 58.707 205.338C59.1523 205.033 59.6387 204.799 60.166 204.635C60.6934 204.471 61.25 204.389 61.8359 204.389C62.5508 204.377 63.1836 204.477 63.7344 204.688C64.2852 204.887 64.7422 205.191 65.1055 205.602C65.4453 205.977 65.7031 206.451 65.8789 207.025C66.0547 207.588 66.1426 208.244 66.1426 208.994V221H69.3945V209.029C69.3945 207.752 69.2363 206.65 68.9199 205.725C68.6152 204.787 68.1758 204.014 67.6016 203.404C67.0273 202.795 66.3301 202.35 65.5098 202.068C64.7012 201.775 63.7988 201.629 62.8027 201.629C62.041 201.641 61.3203 201.752 60.6406 201.963C59.9727 202.174 59.3574 202.484 58.7949 202.895C58.4434 203.141 58.1094 203.428 57.793 203.756C57.4766 204.072 57.1895 204.424 56.9316 204.811ZM74.3867 211.314V211.701C74.3867 213.072 74.5859 214.344 74.9844 215.516C75.3828 216.688 75.957 217.707 76.707 218.574C77.4453 219.441 78.3477 220.121 79.4141 220.613C80.4922 221.105 81.7051 221.352 83.0527 221.352C84.3887 221.352 85.5898 221.105 86.6562 220.613C87.7227 220.121 88.6309 219.441 89.3809 218.574C90.1191 217.707 90.6875 216.688 91.0859 215.516C91.4844 214.344 91.6836 213.072 91.6836 211.701V211.314C91.6836 209.943 91.4844 208.672 91.0859 207.5C90.6875 206.316 90.1191 205.291 89.3809 204.424C88.6309 203.557 87.7168 202.877 86.6387 202.385C85.5723 201.881 84.3652 201.629 83.0176 201.629C81.6816 201.629 80.4805 201.881 79.4141 202.385C78.3477 202.877 77.4453 203.557 76.707 204.424C75.957 205.291 75.3828 206.316 74.9844 207.5C74.5859 208.672 74.3867 209.943 74.3867 211.314ZM77.6387 211.701V211.314C77.6387 210.389 77.75 209.504 77.9727 208.66C78.1953 207.805 78.5352 207.055 78.9922 206.41C79.4375 205.766 79.9941 205.256 80.6621 204.881C81.3301 204.494 82.1152 204.301 83.0176 204.301C83.9199 204.301 84.7051 204.494 85.373 204.881C86.0527 205.256 86.6211 205.766 87.0781 206.41C87.5234 207.055 87.8574 207.805 88.0801 208.66C88.3145 209.504 88.4316 210.389 88.4316 211.314V211.701C88.4316 212.639 88.3203 213.535 88.0977 214.391C87.875 215.234 87.541 215.979 87.0957 216.623C86.6387 217.268 86.0703 217.777 85.3906 218.152C84.7227 218.527 83.9434 218.715 83.0527 218.715C82.1504 218.715 81.3594 218.527 80.6797 218.152C80 217.777 79.4375 217.268 78.9922 216.623C78.5352 215.979 78.1953 215.234 77.9727 214.391C77.75 213.535 77.6387 212.639 77.6387 211.701ZM109.385 201.629C108.002 201.629 106.766 201.934 105.676 202.543C104.598 203.141 103.672 203.961 102.898 205.004L102.881 204.529L102.74 201.98H99.6465V221H102.916V208.801C103.127 208.215 103.391 207.688 103.707 207.219C104.035 206.738 104.416 206.334 104.85 206.006C105.33 205.631 105.893 205.35 106.537 205.162C107.182 204.963 107.902 204.863 108.699 204.863C109.32 204.863 109.912 204.898 110.475 204.969C111.049 205.027 111.652 205.127 112.285 205.268L112.725 202.086C112.396 201.945 111.904 201.834 111.248 201.752C110.604 201.67 109.982 201.629 109.385 201.629ZM126.242 197.375H122.973V201.98H117.98V204.494H122.973V214.83C122.973 216.002 123.125 217.004 123.43 217.836C123.746 218.656 124.174 219.324 124.713 219.84C125.252 220.367 125.885 220.754 126.611 221C127.35 221.234 128.141 221.352 128.984 221.352C129.488 221.352 129.992 221.328 130.496 221.281C131.012 221.234 131.498 221.164 131.955 221.07C132.412 220.988 132.834 220.889 133.221 220.771C133.607 220.643 133.936 220.496 134.205 220.332L133.748 218.029C133.549 218.076 133.291 218.135 132.975 218.205C132.67 218.264 132.342 218.322 131.99 218.381C131.627 218.439 131.258 218.492 130.883 218.539C130.508 218.574 130.145 218.592 129.793 218.592C129.312 218.592 128.855 218.533 128.422 218.416C128 218.299 127.625 218.094 127.297 217.801C126.969 217.52 126.711 217.139 126.523 216.658C126.336 216.178 126.242 215.568 126.242 214.83V204.494H133.484V201.98H126.242V197.375ZM148.268 218.715C147.248 218.715 146.393 218.516 145.701 218.117C145.021 217.707 144.477 217.174 144.066 216.518C143.645 215.873 143.34 215.146 143.152 214.338C142.977 213.518 142.889 212.691 142.889 211.859V211.121C142.889 210.301 142.977 209.486 143.152 208.678C143.34 207.869 143.645 207.137 144.066 206.48C144.488 205.836 145.039 205.314 145.719 204.916C146.41 204.506 147.26 204.301 148.268 204.301C148.924 204.301 149.533 204.412 150.096 204.635C150.67 204.857 151.162 205.162 151.572 205.549C151.982 205.936 152.305 206.387 152.539 206.902C152.785 207.406 152.914 207.945 152.926 208.52H156.002C156.002 207.559 155.809 206.656 155.422 205.812C155.035 204.969 154.502 204.236 153.822 203.615C153.131 203.006 152.311 202.525 151.361 202.174C150.424 201.811 149.393 201.629 148.268 201.629C146.826 201.629 145.566 201.887 144.488 202.402C143.41 202.918 142.514 203.609 141.799 204.477C141.072 205.355 140.527 206.369 140.164 207.518C139.801 208.666 139.619 209.867 139.619 211.121V211.859C139.619 213.125 139.801 214.332 140.164 215.48C140.527 216.617 141.072 217.619 141.799 218.486C142.514 219.365 143.41 220.062 144.488 220.578C145.566 221.094 146.826 221.352 148.268 221.352C149.275 221.352 150.242 221.182 151.168 220.842C152.094 220.49 152.914 220.021 153.629 219.436C154.344 218.861 154.912 218.193 155.334 217.432C155.768 216.658 155.99 215.85 156.002 215.006H152.926C152.914 215.533 152.773 216.025 152.504 216.482C152.246 216.928 151.9 217.314 151.467 217.643C151.033 217.982 150.535 218.246 149.973 218.434C149.422 218.621 148.854 218.715 148.268 218.715ZM174.318 221H177.271V201.98H174.002V215.621C173.826 216.031 173.604 216.412 173.334 216.764C173.076 217.104 172.771 217.396 172.42 217.643C171.998 217.947 171.5 218.188 170.926 218.363C170.352 218.527 169.701 218.609 168.975 218.609C168.354 218.609 167.803 218.527 167.322 218.363C166.854 218.199 166.455 217.912 166.127 217.502C165.799 217.104 165.553 216.564 165.389 215.885C165.225 215.205 165.143 214.35 165.143 213.318V201.98H161.891V213.283C161.891 214.701 162.043 215.92 162.348 216.939C162.664 217.947 163.109 218.779 163.684 219.436C164.258 220.092 164.949 220.578 165.758 220.895C166.566 221.199 167.469 221.352 168.465 221.352C169.707 221.352 170.803 221.094 171.752 220.578C172.701 220.051 173.492 219.318 174.125 218.381L174.318 221ZM191.105 197.375H187.836V201.98H182.844V204.494H187.836V214.83C187.836 216.002 187.988 217.004 188.293 217.836C188.609 218.656 189.037 219.324 189.576 219.84C190.115 220.367 190.748 220.754 191.475 221C192.213 221.234 193.004 221.352 193.848 221.352C194.352 221.352 194.855 221.328 195.359 221.281C195.875 221.234 196.361 221.164 196.818 221.07C197.275 220.988 197.697 220.889 198.084 220.771C198.471 220.643 198.799 220.496 199.068 220.332L198.611 218.029C198.412 218.076 198.154 218.135 197.838 218.205C197.533 218.264 197.205 218.322 196.854 218.381C196.49 218.439 196.121 218.492 195.746 218.539C195.371 218.574 195.008 218.592 194.656 218.592C194.176 218.592 193.719 218.533 193.285 218.416C192.863 218.299 192.488 218.094 192.16 217.801C191.832 217.52 191.574 217.139 191.387 216.658C191.199 216.178 191.105 215.568 191.105 214.83V204.494H198.348V201.98H191.105V197.375ZM217.666 215.955C217.666 216.26 217.607 216.547 217.49 216.816C217.373 217.086 217.203 217.332 216.98 217.555C216.617 217.918 216.113 218.205 215.469 218.416C214.824 218.615 214.068 218.715 213.201 218.715C212.65 218.715 212.094 218.656 211.531 218.539C210.969 218.422 210.459 218.223 210.002 217.941C209.533 217.66 209.141 217.291 208.824 216.834C208.52 216.377 208.344 215.814 208.297 215.146H205.045C205.045 215.955 205.227 216.734 205.59 217.484C205.965 218.234 206.504 218.891 207.207 219.453C207.898 220.027 208.748 220.49 209.756 220.842C210.764 221.182 211.912 221.352 213.201 221.352C214.326 221.352 215.363 221.217 216.312 220.947C217.262 220.678 218.076 220.297 218.756 219.805C219.436 219.312 219.963 218.721 220.338 218.029C220.725 217.338 220.918 216.57 220.918 215.727C220.918 214.941 220.748 214.25 220.408 213.652C220.08 213.055 219.6 212.527 218.967 212.07C218.334 211.625 217.555 211.244 216.629 210.928C215.703 210.6 214.654 210.312 213.482 210.066C212.592 209.891 211.854 209.709 211.268 209.521C210.693 209.334 210.236 209.123 209.896 208.889C209.545 208.654 209.299 208.391 209.158 208.098C209.018 207.805 208.947 207.471 208.947 207.096C208.947 206.732 209.035 206.381 209.211 206.041C209.387 205.701 209.65 205.402 210.002 205.145C210.342 204.887 210.77 204.682 211.285 204.529C211.812 204.377 212.422 204.301 213.113 204.301C213.781 204.301 214.379 204.395 214.906 204.582C215.445 204.77 215.902 205.016 216.277 205.32C216.652 205.625 216.945 205.977 217.156 206.375C217.367 206.762 217.473 207.16 217.473 207.57H220.725C220.725 206.738 220.543 205.965 220.18 205.25C219.828 204.523 219.324 203.891 218.668 203.352C218.012 202.812 217.215 202.391 216.277 202.086C215.34 201.781 214.285 201.629 213.113 201.629C212.023 201.629 211.021 201.775 210.107 202.068C209.205 202.361 208.426 202.76 207.77 203.264C207.113 203.768 206.604 204.359 206.24 205.039C205.877 205.707 205.695 206.428 205.695 207.201C205.695 207.986 205.871 208.678 206.223 209.275C206.574 209.861 207.072 210.371 207.717 210.805C208.35 211.25 209.111 211.631 210.002 211.947C210.904 212.264 211.9 212.533 212.99 212.756C213.881 212.932 214.625 213.131 215.223 213.354C215.82 213.564 216.301 213.799 216.664 214.057C217.027 214.314 217.285 214.602 217.438 214.918C217.59 215.223 217.666 215.568 217.666 215.955Z" fill="white"/>
<path d="M45.6391 92.8123C45.6391 92.8123 40.7675 92.8123 40.7675 97.6804V167.411C40.7675 167.411 40.7675 172.279 45.6391 172.279H204.632C204.632 172.279 209.504 172.279 209.504 167.411V97.6804C209.504 97.6804 209.504 92.8123 204.632 92.8123H45.6391V92.8123Z" stroke="#9333EA" stroke-width="1.8"/>
<path d="M81.5783 150.742C81.5783 150.742 80.604 150.742 80.604 151.714V160.164C80.604 160.164 80.604 161.138 81.5783 161.138H168.279C168.279 161.138 169.254 161.138 169.254 160.164V151.714C169.254 151.714 169.254 150.742 168.279 150.742H81.5783Z" fill="#94A3B8"/>
<path d="M175.429 150.742C175.429 150.742 174.455 150.742 174.455 151.714V160.164C174.455 160.164 174.455 161.138 175.429 161.138H197.757C197.757 161.138 198.732 161.138 198.732 160.164V151.714C198.732 151.714 198.732 150.742 197.757 150.742H175.429Z" fill="#21D4FD"/>
<path d="M52.3061 150.742C52.3061 150.742 51.3318 150.742 51.3318 151.714V160.164C51.3318 160.164 51.3318 161.138 52.3061 161.138H74.6347C74.6347 161.138 75.609 161.138 75.609 160.164V151.714C75.609 151.714 75.609 150.742 74.6347 150.742H52.3061Z" fill="#EC4899"/>
<path d="M97.3932 135.146C97.3932 135.146 96.4204 135.146 96.4204 136.118V144.568C96.4204 144.568 96.4204 145.542 97.3932 145.542H105.85C105.85 145.542 106.824 145.542 106.824 144.568V136.118C106.824 136.118 106.824 135.146 105.85 135.146H97.3932Z" fill="white"/>
<path d="M81.7859 135.146C81.7859 135.146 80.8115 135.146 80.8115 136.118V144.568C80.8115 144.568 80.8115 145.542 81.7859 145.542H90.2421C90.2421 145.542 91.215 145.542 91.215 144.568V136.118C91.215 136.118 91.215 135.146 90.2421 135.146H81.7859Z" fill="white"/>
<path d="M52.3061 135.146C52.3061 135.146 51.3318 135.146 51.3318 136.118V144.568C51.3318 144.568 51.3318 145.542 52.3061 145.542H74.6347C74.6347 145.542 75.609 145.542 75.609 144.568V136.118C75.609 136.118 75.609 135.146 74.6347 135.146H52.3061Z" fill="white"/>
<path d="M113.001 135.146C113.001 135.146 112.026 135.146 112.026 136.118V144.568C112.026 144.568 112.026 145.542 113.001 145.542H121.457C121.457 145.542 122.43 145.542 122.43 144.568V136.118C122.43 136.118 122.43 135.146 121.457 135.146H113.001Z" fill="white"/>
<path d="M128.608 135.146C128.608 135.146 127.635 135.146 127.635 136.118V144.568C127.635 144.568 127.635 145.542 128.608 145.542H137.064C137.064 145.542 138.039 145.542 138.039 144.568V136.118C138.039 136.118 138.039 135.146 137.064 135.146H128.608Z" fill="white"/>
<path d="M144.214 135.146C144.214 135.146 143.24 135.146 143.24 136.118V144.568C143.24 144.568 143.24 145.542 144.214 145.542H152.67C152.67 145.542 153.643 145.542 153.643 144.568V136.118C153.643 136.118 153.643 135.146 152.67 135.146H144.214Z" fill="white"/>
<path d="M159.821 135.146C159.821 135.146 158.849 135.146 158.849 136.118V144.568C158.849 144.568 158.849 145.542 159.821 145.542H168.278C168.278 145.542 169.252 145.542 169.252 144.568V136.118C169.252 136.118 169.252 135.146 168.278 135.146H159.821Z" fill="white"/>
<path d="M175.429 135.146C175.429 135.146 174.455 135.146 174.455 136.118V144.568C174.455 144.568 174.455 145.542 175.429 145.542H197.966C197.966 145.542 198.939 145.542 198.939 144.568V136.118C198.939 136.118 198.939 135.146 197.966 135.146H175.429Z" fill="white"/>
<path d="M90.4571 119.551C90.4571 119.551 89.4828 119.551 89.4828 120.523V128.973C89.4828 128.973 89.4828 129.946 90.4571 129.946H98.9134C98.9134 129.946 99.8877 129.946 99.8877 128.973V120.523C99.8877 120.523 99.8877 119.551 98.9134 119.551H90.4571Z" fill="white"/>
<path d="M74.8497 119.551C74.8497 119.551 73.8754 119.551 73.8754 120.523V128.973C73.8754 128.973 73.8754 129.946 74.8497 129.946H83.306C83.306 129.946 84.2803 129.946 84.2803 128.973V120.523C84.2803 120.523 84.2803 119.551 83.306 119.551H74.8497Z" fill="white"/>
<path d="M52.3061 119.551C52.3061 119.551 51.3318 119.551 51.3318 120.523V128.973C51.3318 128.973 51.3318 129.946 52.3061 129.946H67.6985C67.6985 129.946 68.6729 129.946 68.6729 128.973V120.523C68.6729 120.523 68.6729 119.551 67.6985 119.551H52.3061Z" fill="white"/>
<path d="M106.063 119.551C106.063 119.551 105.089 119.551 105.089 120.523V128.973C105.089 128.973 105.089 129.946 106.063 129.946H114.519C114.519 129.946 115.494 129.946 115.494 128.973V120.523C115.494 120.523 115.494 119.551 114.519 119.551H106.063Z" fill="white"/>
<path d="M121.67 119.551C121.67 119.551 120.698 119.551 120.698 120.523V128.973C120.698 128.973 120.698 129.946 121.67 129.946H130.127C130.127 129.946 131.101 129.946 131.101 128.973V120.523C131.101 120.523 131.101 119.551 130.127 119.551H121.67Z" fill="white"/>
<path d="M137.278 119.551C137.278 119.551 136.304 119.551 136.304 120.523V128.973C136.304 128.973 136.304 129.946 137.278 129.946H145.734C145.734 129.946 146.707 129.946 146.707 128.973V120.523C146.707 120.523 146.707 119.551 145.734 119.551H137.278Z" fill="white"/>
<path d="M152.885 119.551C152.885 119.551 151.912 119.551 151.912 120.523V128.973C151.912 128.973 151.912 129.946 152.885 129.946H161.342C161.342 129.946 162.316 129.946 162.316 128.973V120.523C162.316 120.523 162.316 119.551 161.342 119.551H152.885Z" fill="white"/>
<path d="M168.493 119.551C168.493 119.551 167.518 119.551 167.518 120.523V128.973C167.518 128.973 167.518 129.946 168.493 129.946H176.949C176.949 129.946 177.922 129.946 177.922 128.973V120.523C177.922 120.523 177.922 119.551 176.949 119.551H168.493Z" fill="white"/>
<path d="M184.1 119.551C184.1 119.551 183.127 119.551 183.127 120.523V128.973C183.127 128.973 183.127 129.946 184.1 129.946H197.966C197.966 129.946 198.941 129.946 198.941 128.973V120.523C198.941 120.523 198.941 119.551 197.966 119.551H184.1Z" fill="white"/>
<path d="M128.222 103.953C128.222 103.953 127.249 103.953 127.249 104.927V113.377C127.249 113.377 127.249 114.35 128.222 114.35H136.679C136.679 114.35 137.652 114.35 137.652 113.377V104.927C137.652 104.927 137.652 103.953 136.679 103.953H128.222Z" fill="white"/>
<path d="M113.038 103.953C113.038 103.953 112.065 103.953 112.065 104.927V113.377C112.065 113.377 112.065 114.35 113.038 114.35H121.496C121.496 114.35 122.469 114.35 122.469 113.377V104.927C122.469 104.927 122.469 103.953 121.496 103.953H113.038Z" fill="white"/>
<path d="M97.8548 103.953C97.8548 103.953 96.8805 103.953 96.8805 104.927V113.377C96.8805 113.377 96.8805 114.35 97.8548 114.35H106.311C106.311 114.35 107.284 114.35 107.284 113.377V104.927C107.284 104.927 107.284 103.953 106.311 103.953H97.8548Z" fill="white"/>
<path d="M82.6729 103.953C82.6729 103.953 81.6986 103.953 81.6986 104.927V113.377C81.6986 113.377 81.6986 114.35 82.6729 114.35H91.1292C91.1292 114.35 92.1021 114.35 92.1021 113.377V104.927C92.1021 104.927 92.1021 103.953 91.1292 103.953H82.6729Z" fill="white"/>
<path d="M67.4896 103.953C67.4896 103.953 66.5153 103.953 66.5153 104.927V113.377C66.5153 113.377 66.5153 114.35 67.4896 114.35H75.9459C75.9459 114.35 76.9202 114.35 76.9202 113.377V104.927C76.9202 104.927 76.9202 103.953 75.9459 103.953H67.4896Z" fill="white"/>
<path d="M52.3061 103.953C52.3061 103.953 51.3318 103.953 51.3318 104.927V113.377C51.3318 113.377 51.3318 114.35 52.3061 114.35H60.7624C60.7624 114.35 61.7367 114.35 61.7367 113.377V104.927C61.7367 104.927 61.7367 103.953 60.7624 103.953H52.3061Z" fill="#EF9645"/>
<path d="M143.405 103.953C143.405 103.953 142.432 103.953 142.432 104.927V113.377C142.432 113.377 142.432 114.35 143.405 114.35H151.861C151.861 114.35 152.836 114.35 152.836 113.377V104.927C152.836 104.927 152.836 103.953 151.861 103.953H143.405Z" fill="white"/>
<path d="M158.59 103.953C158.59 103.953 157.616 103.953 157.616 104.927V113.377C157.616 113.377 157.616 114.35 158.59 114.35H167.045C167.045 114.35 168.019 114.35 168.019 113.377V104.927C168.019 104.927 168.019 103.953 167.045 103.953H158.59Z" fill="white"/>
<path d="M173.773 103.953C173.773 103.953 172.799 103.953 172.799 104.927V113.377C172.799 113.377 172.799 114.35 173.773 114.35H182.228C182.228 114.35 183.203 114.35 183.203 113.377V104.927C183.203 104.927 183.203 103.953 182.228 103.953H173.773Z" fill="white"/>
<path d="M188.955 103.953C188.955 103.953 187.981 103.953 187.981 104.927V113.377C187.981 113.377 187.981 114.35 188.955 114.35H197.412C197.412 114.35 198.384 114.35 198.384 113.377V104.927C198.384 104.927 198.384 103.953 197.412 103.953H188.955Z" fill="white"/>
</svg>
